<svg
  width="143"
  height="28"
  viewBox="0 0 143 28"
  fill="none"
  xmlns="http://www.w3.org/2000/svg"
>
<path
    d="M31.5852 21.0527C26.4329 15.4984 22.5117 8.95116 20.0677 1.84052C19.9036 1.36647 19.4476 1.04448 18.937 1.04448C16.949 0.740382 14.9702 0.740382 12.9822 1.04448C12.4715 1.04448 12.0155 1.36647 11.8514 1.84052C9.39834 8.95116 5.47711 15.4984 0.315666 21.0527C0.0238529 21.3657 -0.0764579 21.8129 0.0603295 22.2065C0.680432 24.0311 1.61971 25.7126 2.81431 27.1884C3.09701 27.5372 3.56208 27.7072 4.00892 27.6087C11.8696 25.9004 20.0313 25.9004 27.892 27.6087C28.3388 27.7072 28.8039 27.5372 29.0866 27.1884C30.2812 25.7126 31.2205 24.0311 31.8406 22.2065C31.9774 21.8129 31.8771 21.3657 31.5852 21.0527ZM27.6276 23.6912L22.8035 20.9006C18.5722 18.4499 13.3196 18.4499 9.09742 20.9006L4.27339 23.6912L3.73535 22.7968L8.8056 19.8631C12.9092 17.484 15.4261 13.1549 15.4261 8.48606V3.70986H16.4931V8.48606C16.4931 13.1639 19.01 17.484 23.1136 19.8631L28.1747 22.7968L27.6276 23.6912Z"
    fill="#FE610B"
  />
<path
    d="M45.42 19H47.62V13.4H51.3C54.8 13.4 53.44 18.4 54.08 19H56.44V18.86C55.66 18.62 56.88 12.98 53.56 12.36V12.32C55.14 11.96 56.24 10.64 56.24 8.82C56.24 6.18 54.54 4.7 51.38 4.7H45.42V19ZM47.62 11.5V6.6H50.94C53.14 6.6 54.02 7.44 54.02 8.98C54.02 10.62 52.92 11.5 50.9 11.5H47.62ZM58.545 19H68.865V17.1H60.745V12.56H67.685V10.66H60.745V6.6H68.665V4.7H58.545V19ZM76.5563 19.28C80.1563 19.28 82.3963 16.98 82.7163 13.8H80.4163C80.2763 15.54 79.2963 17.38 76.5363 17.38C73.3763 17.38 72.1763 14.7 72.1763 11.84C72.1763 9 73.3763 6.32 76.5363 6.32C79.2763 6.32 80.1563 8.16 80.4163 9.56H82.7163C82.3763 6.7 80.1563 4.42 76.5763 4.42C72.5163 4.42 69.8763 7.54 69.8763 11.86C69.8763 16.16 72.4963 19.28 76.5563 19.28ZM87.9319 19H90.1519V13.28L95.2719 4.7H92.9119L89.0719 11.54H89.0319L85.1919 4.7H82.8119L87.9319 13.28V19ZM101.732 19.28C105.332 19.28 107.572 16.98 107.892 13.8H105.592C105.452 15.54 104.472 17.38 101.712 17.38C98.552 17.38 97.352 14.7 97.352 11.84C97.352 9 98.552 6.32 101.712 6.32C104.452 6.32 105.332 8.16 105.592 9.56H107.892C107.552 6.7 105.332 4.42 101.752 4.42C97.692 4.42 95.052 7.54 95.052 11.86C95.052 16.16 97.672 19.28 101.732 19.28ZM109.873 19H119.313V17.1H112.073V4.7H109.873V19ZM121.025 19H131.345V17.1H123.225V12.56H130.165V10.66H123.225V6.6H131.145V4.7H121.025V19ZM137.688 14.06C140.348 14.06 142.448 12 142.448 9.22C142.448 6.44 140.348 4.38 137.688 4.38C135.028 4.38 132.928 6.44 132.928 9.22C132.928 12 135.028 14.06 137.688 14.06ZM133.868 9.22C133.868 6.88 135.488 5.2 137.688 5.2C139.888 5.2 141.508 6.88 141.508 9.22C141.508 11.56 139.888 13.24 137.688 13.24C135.488 13.24 133.868 11.56 133.868 9.22ZM135.688 11.86H137.008V9.98H137.508C138.748 9.98 138.308 11.62 138.568 11.86H139.928V11.8C139.608 11.7 140.048 9.68 138.688 9.46V9.44C139.368 9.28 139.808 8.84 139.808 8.1C139.808 7.1 139.148 6.54 137.908 6.54H135.688V11.86ZM137.008 8.92V7.54H137.548C138.088 7.54 138.548 7.64 138.548 8.22C138.548 8.8 138.088 8.92 137.548 8.92H137.008Z"
    fill="white"
  />
</svg>
